<mxfile host="app.diagrams.net" agent="Mozilla/5.0 (Macintosh; Intel Mac OS X 10_15_7) AppleWebKit/537.36 (KHTML, like Gecko) Chrome/131.0.0.0 Safari/537.36" version="26.0.2">
  <diagram name="第 1 页" id="RaxyVNH5YI-jz5xzU1GE">
    <mxGraphModel dx="1434" dy="785" grid="0" gridSize="10" guides="1" tooltips="1" connect="1" arrows="1" fold="1" page="1" pageScale="1" pageWidth="827" pageHeight="1169" math="0" shadow="0">
      <root>
        <mxCell id="0" />
        <mxCell id="1" parent="0" />
        <mxCell id="3nv-xn3mIfYvDM5Sk09U-8" value="" style="edgeStyle=orthogonalEdgeStyle;rounded=0;orthogonalLoop=1;jettySize=auto;html=1;" edge="1" parent="1" source="3nv-xn3mIfYvDM5Sk09U-1" target="3nv-xn3mIfYvDM5Sk09U-2">
          <mxGeometry relative="1" as="geometry" />
        </mxCell>
        <mxCell id="3nv-xn3mIfYvDM5Sk09U-1" value="&lt;font style=&quot;font-size: 18px;&quot;&gt;点击查看密码&lt;/font&gt;" style="rounded=1;whiteSpace=wrap;html=1;" vertex="1" parent="1">
          <mxGeometry x="257" y="150" width="120" height="46" as="geometry" />
        </mxCell>
        <mxCell id="3nv-xn3mIfYvDM5Sk09U-9" value="" style="edgeStyle=orthogonalEdgeStyle;rounded=0;orthogonalLoop=1;jettySize=auto;html=1;" edge="1" parent="1" source="3nv-xn3mIfYvDM5Sk09U-2" target="3nv-xn3mIfYvDM5Sk09U-3">
          <mxGeometry relative="1" as="geometry" />
        </mxCell>
        <mxCell id="3nv-xn3mIfYvDM5Sk09U-2" value="&lt;font style=&quot;font-size: 18px;&quot;&gt;打开弹窗&lt;/font&gt;" style="rounded=1;whiteSpace=wrap;html=1;" vertex="1" parent="1">
          <mxGeometry x="257" y="236" width="120" height="60" as="geometry" />
        </mxCell>
        <mxCell id="3nv-xn3mIfYvDM5Sk09U-10" value="" style="edgeStyle=orthogonalEdgeStyle;rounded=0;orthogonalLoop=1;jettySize=auto;html=1;" edge="1" parent="1" source="3nv-xn3mIfYvDM5Sk09U-3" target="3nv-xn3mIfYvDM5Sk09U-5">
          <mxGeometry relative="1" as="geometry" />
        </mxCell>
        <mxCell id="3nv-xn3mIfYvDM5Sk09U-3" value="&lt;font style=&quot;font-size: 18px;&quot;&gt;点击获取&lt;/font&gt;&lt;div&gt;&lt;font style=&quot;font-size: 18px;&quot;&gt;验证码&lt;/font&gt;&lt;/div&gt;" style="rounded=1;whiteSpace=wrap;html=1;" vertex="1" parent="1">
          <mxGeometry x="257" y="338" width="120" height="48" as="geometry" />
        </mxCell>
        <mxCell id="3nv-xn3mIfYvDM5Sk09U-15" style="edgeStyle=orthogonalEdgeStyle;rounded=0;orthogonalLoop=1;jettySize=auto;html=1;exitX=0;exitY=0.5;exitDx=0;exitDy=0;entryX=0.5;entryY=0;entryDx=0;entryDy=0;" edge="1" parent="1" source="3nv-xn3mIfYvDM5Sk09U-5" target="3nv-xn3mIfYvDM5Sk09U-13">
          <mxGeometry relative="1" as="geometry" />
        </mxCell>
        <mxCell id="3nv-xn3mIfYvDM5Sk09U-18" value="&lt;font style=&quot;font-size: 18px;&quot;&gt;YES&lt;/font&gt;" style="edgeLabel;html=1;align=center;verticalAlign=middle;resizable=0;points=[];" vertex="1" connectable="0" parent="3nv-xn3mIfYvDM5Sk09U-15">
          <mxGeometry x="0.1228" y="-1" relative="1" as="geometry">
            <mxPoint as="offset" />
          </mxGeometry>
        </mxCell>
        <mxCell id="3nv-xn3mIfYvDM5Sk09U-16" style="edgeStyle=orthogonalEdgeStyle;rounded=0;orthogonalLoop=1;jettySize=auto;html=1;exitX=1;exitY=0.5;exitDx=0;exitDy=0;entryX=0.5;entryY=0;entryDx=0;entryDy=0;" edge="1" parent="1" source="3nv-xn3mIfYvDM5Sk09U-5" target="3nv-xn3mIfYvDM5Sk09U-14">
          <mxGeometry relative="1" as="geometry" />
        </mxCell>
        <mxCell id="3nv-xn3mIfYvDM5Sk09U-19" value="&lt;span style=&quot;font-size: 18px;&quot;&gt;No&lt;/span&gt;" style="edgeLabel;html=1;align=center;verticalAlign=middle;resizable=0;points=[];" vertex="1" connectable="0" parent="3nv-xn3mIfYvDM5Sk09U-16">
          <mxGeometry x="0.2647" y="1" relative="1" as="geometry">
            <mxPoint as="offset" />
          </mxGeometry>
        </mxCell>
        <mxCell id="3nv-xn3mIfYvDM5Sk09U-5" value="&lt;font style=&quot;font-size: 18px;&quot;&gt;判断验证&lt;/font&gt;&lt;div&gt;&lt;font size=&quot;3&quot;&gt;码是否正确&lt;/font&gt;&lt;/div&gt;" style="rhombus;whiteSpace=wrap;html=1;" vertex="1" parent="1">
          <mxGeometry x="271" y="428" width="92" height="76" as="geometry" />
        </mxCell>
        <mxCell id="3nv-xn3mIfYvDM5Sk09U-13" value="&lt;span style=&quot;font-size: 18px;&quot;&gt;显示密码&lt;/span&gt;" style="rounded=1;whiteSpace=wrap;html=1;" vertex="1" parent="1">
          <mxGeometry x="171" y="540" width="120" height="48" as="geometry" />
        </mxCell>
        <mxCell id="3nv-xn3mIfYvDM5Sk09U-14" value="&lt;span style=&quot;font-size: 18px;&quot;&gt;校验失败&lt;/span&gt;" style="rounded=1;whiteSpace=wrap;html=1;" vertex="1" parent="1">
          <mxGeometry x="363" y="542" width="120" height="48" as="geometry" />
        </mxCell>
      </root>
    </mxGraphModel>
  </diagram>
</mxfile>
